<svg width="60" height="60" xmlns="http://www.w3.org/2000/svg">

 <g>
  <title>background</title>
  <rect fill="#ffffff" id="canvas_background" height="62" width="62" y="-1" x="-1"/>
 </g>
 <g>
  <title>Layer 1</title>
  <path id="svg_1" d="m6,12a4,4 0 0 1 4,-4l40,0a4,4 0 0 1 4,4l0,38a4,4 0 0 1 -4,4l-40,0a4,4 0 0 1 -4,-4l0,-38zm4,8l0,24a4,4 0 0 0 4,4l32,0a4,4 0 0 0 4,-4l0,-28a4,4 0 0 0 -4,-4l-32,0a4,4 0 0 0 -4,4"/>
  <path id="svg_2" d="m15,20l11,11l-11,11m16,-1l15,0" fill="none" stroke-width="5" stroke="#000"/>
 </g>
</svg>